<svg fill="currentColor" xmlns="http://www.w3.org/2000/svg" width="92.015" height="80" viewBox="0 0 92.015 80">
  <path d="M 67.056 0 L 24.959 0 C 23.566 0 22.281 0.743 21.576 1.942 L 9.606 22.5 L 0.528 38.066 C -0.176 39.264 -0.176 40.736 0.528 41.934 L 7.799 54.405 L 21.576 78.058 C 22.281 79.257 23.566 80 24.959 80 L 67.056 80 C 68.449 80 69.735 79.257 70.439 78.058 L 91.487 41.934 C 92.191 40.736 92.191 39.264 91.487 38.066 L 70.439 1.942 C 69.735 0.743 68.449 0 67.056 0 Z M 48.641 6.463 L 64.79 6.463 C 65.25 6.463 65.678 6.706 65.923 7.115 L 73.99 20.967 C 74.22 21.362 74.22 21.862 73.99 22.257 L 67.791 32.907 C 67.286 33.772 66.03 33.772 65.54 32.907 L 57.458 19.025 C 57.228 18.631 56.8 18.373 56.325 18.373 L 43.206 18.373 C 42.211 18.373 41.584 17.296 42.074 16.431 L 47.508 7.1 C 47.737 6.706 48.166 6.448 48.641 6.448 L 48.641 6.463 Z M 61.851 40.645 L 53.723 54.588 C 53.493 54.982 53.065 55.24 52.59 55.24 L 36.348 55.24 C 35.889 55.24 35.461 54.997 35.216 54.588 L 27.087 40.645 C 26.858 40.25 26.858 39.75 27.087 39.355 L 35.216 25.412 C 35.445 25.018 35.874 24.76 36.348 24.76 L 52.59 24.76 C 53.049 24.76 53.478 25.003 53.723 25.412 L 61.851 39.355 C 62.081 39.75 62.081 40.25 61.851 40.645 Z M 27.225 6.463 L 38.109 6.463 C 39.104 6.463 39.731 7.54 39.242 8.405 L 33.807 17.751 C 33.578 18.145 33.149 18.403 32.675 18.403 L 31.909 18.403 L 21.806 18.403 C 20.811 18.403 20.183 17.326 20.673 16.461 L 26.123 7.115 C 26.352 6.721 26.781 6.463 27.256 6.463 L 27.225 6.463 Z M 7.309 39.355 L 15.377 25.504 C 15.606 25.109 16.035 24.851 16.509 24.851 L 25.863 24.851 C 26.858 24.851 27.485 25.928 26.995 26.793 L 19.678 39.355 C 19.449 39.75 19.449 40.25 19.678 40.645 L 26.995 53.207 C 27.5 54.072 26.873 55.149 25.863 55.149 L 16.509 55.149 C 16.05 55.149 15.622 54.906 15.377 54.496 L 7.309 40.645 C 7.08 40.25 7.08 39.75 7.309 39.355 Z M 26.092 72.885 L 20.643 63.539 C 20.137 62.674 20.765 61.597 21.775 61.597 L 32.644 61.597 C 33.103 61.597 33.547 61.84 33.777 62.249 L 39.211 71.595 C 39.716 72.46 39.089 73.537 38.078 73.537 L 27.194 73.537 C 26.735 73.537 26.306 73.294 26.062 72.885 L 26.092 72.885 Z M 64.775 73.522 L 48.625 73.522 C 48.166 73.522 47.737 73.279 47.493 72.869 L 42.058 63.539 C 41.553 62.674 42.181 61.597 43.191 61.597 L 56.31 61.597 C 56.769 61.597 57.198 61.354 57.443 60.944 L 65.525 47.062 C 66.03 46.198 67.286 46.198 67.775 47.062 L 73.975 57.713 C 74.205 58.107 74.205 58.608 73.975 59.002 L 65.908 72.854 C 65.678 73.249 65.25 73.507 64.775 73.507 L 64.775 73.522 Z M 71.556 39.355 L 77.006 30.009 C 77.511 29.145 78.766 29.145 79.256 30.009 L 84.706 39.355 C 84.935 39.75 84.935 40.25 84.706 40.645 L 79.256 49.991 C 78.751 50.855 77.496 50.855 77.006 49.991 L 71.556 40.645 C 71.327 40.25 71.327 39.75 71.556 39.355 Z" fill-rule="nonzero"></path>
</svg>